<svg width="25" height="24" viewBox="0 0 25 24" fill="none" xmlns="http://www.w3.org/2000/svg">
<path d="M13.4601 4.12418C13.4601 3.50331 12.9567 3 12.3358 3C11.7148 3 11.2114 3.50331 11.2114 4.12418V10.8685H4.45786C3.83689 10.8685 3.3335 11.3719 3.3335 11.9927C3.3335 12.6136 3.83689 13.1169 4.45786 13.1169H11.2114V19.8758C11.2114 20.4967 11.7148 21 12.3358 21C12.9567 21 13.4601 20.4967 13.4601 19.8758V13.1169H20.2091C20.8301 13.1169 21.3335 12.6136 21.3335 11.9927C21.3335 11.3719 20.8301 10.8685 20.2091 10.8685H13.4601V4.12418Z" fill="#05060F"/>
</svg>
