<svg width="85" height="20" viewBox="0 0 85 20" fill="none" xmlns="http://www.w3.org/2000/svg">
<g clip-path="url(#clip0_3169_35062)">
<path d="M22.5708 7.04112H31.0746V8.56876H27.7314V17.1582H25.8918V8.56876H22.563V7.04053H22.5702L22.5708 7.04112ZM30.7116 9.83229H32.2836V11.2464H32.313C32.3652 11.0464 32.4612 10.8535 32.6022 10.6676C32.9037 10.2692 33.3117 9.96034 33.7812 9.77523C34.0196 9.6826 34.2735 9.63413 34.53 9.63229C34.722 9.63229 34.8636 9.63935 34.938 9.647C35.0118 9.65406 35.0856 9.66817 35.1672 9.67523V11.2317C35.0468 11.2111 34.9257 11.1944 34.8042 11.1817C34.6835 11.1677 34.5621 11.1606 34.4406 11.1605C34.1586 11.1605 33.8922 11.2176 33.6402 11.3252C33.3882 11.4317 33.1728 11.5958 32.988 11.8035C32.7908 12.0356 32.6398 12.302 32.5428 12.5888C32.4318 12.9029 32.3796 13.2594 32.3796 13.667V17.1511H30.7044V9.83229H30.7116ZM42.8706 17.1588H41.2248V16.1376H41.1948C40.9872 16.5094 40.6836 16.8023 40.2756 17.0235C39.8676 17.2446 39.4524 17.3588 39.03 17.3588C38.0292 17.3588 37.302 17.1235 36.858 16.6446C36.4128 16.1664 36.1902 15.4452 36.1902 14.4811V9.83288H37.866V14.3241C37.866 14.967 37.992 15.4241 38.2518 15.6882C38.5038 15.9523 38.8668 16.0882 39.3264 16.0882C39.6822 16.0882 39.9714 16.0382 40.2084 15.9305C40.446 15.8235 40.6386 15.6882 40.7796 15.5094C40.9278 15.3382 41.0316 15.1241 41.0988 14.8811C41.1648 14.6382 41.1948 14.3741 41.1948 14.0888V9.83994H42.8706V17.1588ZM45.7248 14.8099C45.777 15.2805 45.9618 15.6099 46.281 15.8023C46.6068 15.9882 46.9926 16.0882 47.445 16.0882C47.601 16.0882 47.7786 16.0735 47.979 16.0523C48.1788 16.0305 48.3714 15.9805 48.5424 15.917C48.72 15.8523 48.8604 15.7523 48.9792 15.6241C49.0908 15.4946 49.1424 15.3311 49.1352 15.1241C49.1342 15.028 49.1126 14.9331 49.0718 14.8458C49.031 14.7584 48.9718 14.6805 48.8982 14.617C48.7494 14.4817 48.5646 14.3817 48.3342 14.2958C48.0775 14.2086 47.8149 14.1394 47.5482 14.0888C47.2518 14.0317 46.9554 13.967 46.6518 13.9029C46.3459 13.838 46.0439 13.7569 45.747 13.6599C45.4685 13.5724 45.2059 13.4424 44.9688 13.2746C44.7377 13.1166 44.5493 12.9058 44.4198 12.6605C44.2794 12.4105 44.2122 12.1035 44.2122 11.7323C44.2122 11.3323 44.316 11.0041 44.5164 10.7323C44.7185 10.4628 44.9795 10.2409 45.2802 10.0829C45.6034 9.91539 45.9508 9.79735 46.3104 9.73288C46.6884 9.66876 47.052 9.63288 47.3928 9.63288C47.7858 9.63288 48.1638 9.67582 48.5202 9.75465C48.8652 9.82707 49.1941 9.95999 49.491 10.147C49.7802 10.3258 50.0172 10.5611 50.2104 10.847C50.403 11.1323 50.5218 11.4823 50.5734 11.8894H48.8238C48.7422 11.5041 48.564 11.2399 48.2754 11.1111C47.9862 10.9758 47.6526 10.9111 47.2818 10.9111C47.163 10.9111 47.022 10.9182 46.8594 10.9399C46.7027 10.9604 46.5485 10.9962 46.3992 11.047C46.2627 11.0963 46.1388 11.1742 46.0362 11.2752C45.9864 11.328 45.9476 11.3898 45.9222 11.4572C45.8968 11.5247 45.8851 11.5963 45.888 11.6682C45.888 11.8682 45.9618 12.0252 46.1028 12.1464C46.2438 12.2676 46.4292 12.3676 46.659 12.4535C46.8888 12.5323 47.1486 12.6035 47.445 12.6605C47.7414 12.7176 48.045 12.7817 48.357 12.8464C48.6606 12.9105 48.957 12.9964 49.254 13.0888C49.5504 13.1817 49.8096 13.3105 50.04 13.4746C50.2698 13.6388 50.4552 13.8388 50.5956 14.0817C50.7366 14.3241 50.811 14.6311 50.811 14.9882C50.811 15.4235 50.7072 15.7882 50.499 16.0952C50.292 16.3952 50.025 16.6446 49.6986 16.8305C49.3569 17.0235 48.9867 17.1632 48.6012 17.2446C48.209 17.3292 47.8087 17.3722 47.4072 17.3729C46.9575 17.3778 46.5091 17.325 46.0734 17.2158C45.6654 17.1088 45.3096 16.9517 45.0132 16.7452C44.7202 16.5365 44.4794 16.2654 44.3088 15.9523C44.1384 15.6382 44.049 15.2594 44.0346 14.8241H45.7248V14.8099ZM51.2556 9.83347H52.5234V7.63347H54.1992V9.83347H55.7112V11.0394H54.1998V14.9529C54.1998 15.1235 54.207 15.267 54.222 15.3952C54.2364 15.517 54.2736 15.6241 54.3258 15.7094C54.3825 15.799 54.4686 15.867 54.57 15.9023C54.6816 15.9452 54.822 15.967 55.0152 15.967C55.1334 15.967 55.2522 15.967 55.371 15.9594C55.4898 15.9523 55.608 15.9382 55.7268 15.9094V17.1588C55.5414 17.1805 55.356 17.1946 55.1856 17.2158C55.006 17.2363 54.8252 17.2459 54.6444 17.2446C54.1998 17.2446 53.844 17.2017 53.5764 17.1235C53.31 17.0446 53.0946 16.9235 52.9464 16.7664C52.7904 16.6094 52.6944 16.4164 52.635 16.1805C52.5772 15.9153 52.5451 15.6452 52.539 15.3741V11.0529H51.2712V9.8317H51.2562L51.2556 9.83347ZM56.8974 9.83347H58.4844V10.8252H58.5144C58.7508 10.397 59.0772 10.097 59.4996 9.9117C59.9314 9.72351 60.3993 9.62842 60.8718 9.63288C61.4718 9.63288 61.9908 9.73288 62.436 9.93994C62.8806 10.1399 63.2514 10.4188 63.5478 10.7752C63.8442 11.1323 64.0596 11.5464 64.2078 12.0182C64.3588 12.5089 64.4338 13.0191 64.4304 13.5317C64.4304 14.0241 64.3638 14.5023 64.23 14.9599C64.1071 15.4014 63.9036 15.8173 63.6294 16.1876C63.3599 16.5445 63.0097 16.8355 62.6064 17.0376C62.1912 17.2517 61.7094 17.3588 61.146 17.3588C60.8997 17.3585 60.654 17.3368 60.4116 17.2941C60.1698 17.2513 59.9337 17.1821 59.7078 17.0876C59.4833 16.9958 59.2734 16.8729 59.0844 16.7229C58.8978 16.577 58.7353 16.4038 58.6026 16.2094H58.5726V19.8652H56.8974V9.83229V9.83347ZM62.7546 13.5029C62.7549 13.1773 62.7101 12.8531 62.6214 12.5394C62.5392 12.2421 62.4035 11.9616 62.2206 11.7111C62.047 11.4729 61.8218 11.2752 61.5612 11.1323C61.2812 10.984 60.9674 10.9079 60.6492 10.9111C59.9448 10.9111 59.4108 11.1464 59.055 11.6182C58.6992 12.0894 58.521 12.7182 58.521 13.5029C58.521 13.8741 58.566 14.217 58.662 14.5311C58.758 14.8452 58.8918 15.117 59.0844 15.3452C59.2704 15.5741 59.4924 15.7523 59.7522 15.8805C60.0114 16.0164 60.3156 16.0805 60.6564 16.0805C61.0422 16.0805 61.3608 16.0023 61.6278 15.8523C61.8863 15.7065 62.109 15.5066 62.28 15.267C62.4504 15.0241 62.577 14.7523 62.6508 14.4458C62.719 14.1359 62.7538 13.8199 62.7546 13.5029ZM65.7126 7.04112H67.3884V8.56935H65.7126V7.04112ZM65.7126 9.83288H67.3884V17.1588H65.7126V9.83288ZM68.886 7.04112H70.5618V17.1588H68.886V7.04112ZM75.6996 17.3588C75.0912 17.3588 74.55 17.2588 74.076 17.0664C73.6216 16.8837 73.2103 16.6114 72.8676 16.2664C72.5344 15.9145 72.2793 15.4987 72.1182 15.0452C71.9418 14.5447 71.8542 14.0183 71.859 13.4888C71.859 12.9317 71.9478 12.4182 72.1182 11.9464C72.2794 11.4932 72.5345 11.0776 72.8676 10.7258C73.1934 10.3829 73.6014 10.1188 74.076 9.92582C74.55 9.73288 75.0912 9.63288 75.6996 9.63288C76.3074 9.63288 76.8486 9.73288 77.3232 9.92582C77.7978 10.1188 78.198 10.3905 78.5316 10.7258C78.8647 11.0775 79.1197 11.4931 79.2804 11.9464C79.4508 12.4176 79.5396 12.9317 79.5396 13.4888C79.5396 14.0535 79.4508 14.5741 79.2804 15.0452C79.1198 15.4987 78.8648 15.9146 78.5316 16.2664C78.2052 16.6094 77.7978 16.8735 77.3232 17.0664C76.8486 17.2588 76.3074 17.3588 75.6996 17.3588ZM75.6996 16.0805C76.0704 16.0805 76.3962 16.0023 76.6704 15.8523C76.9377 15.7064 77.1683 15.5039 77.3454 15.2594C77.523 15.017 77.649 14.7382 77.7384 14.4311C77.82 14.1241 77.8644 13.8099 77.8644 13.4888C77.8644 13.1746 77.82 12.8676 77.7384 12.5535C77.662 12.2555 77.5286 11.9745 77.3454 11.7252C77.1679 11.4831 76.9372 11.283 76.6704 11.1399C76.3962 10.9899 76.0704 10.9111 75.6996 10.9111C75.3288 10.9111 75.0024 10.9899 74.7282 11.1399C74.4631 11.2852 74.233 11.4849 74.0538 11.7252C73.8731 11.9759 73.74 12.2565 73.6608 12.5535C73.5787 12.8588 73.5361 13.173 73.5342 13.4888C73.5342 13.8099 73.5792 14.1241 73.6608 14.4311C73.7424 14.7382 73.8756 15.017 74.0538 15.2594C74.2314 15.5023 74.454 15.7023 74.7282 15.8523C75.0024 16.0094 75.3288 16.0805 75.6996 16.0805ZM80.0292 9.83347H81.297V7.63347H82.9728V9.83347H84.4848V11.0394H82.9728V14.9529C82.9728 15.1235 82.98 15.267 82.9944 15.3952C83.0094 15.517 83.0466 15.6241 83.0988 15.7094C83.1554 15.7991 83.2415 15.8671 83.343 15.9023C83.4546 15.9452 83.595 15.967 83.7882 15.967C83.9064 15.967 84.0252 15.967 84.144 15.9594C84.2628 15.9523 84.381 15.9382 84.4998 15.9094V17.1588C84.3144 17.1805 84.129 17.1946 83.9586 17.2158C83.779 17.2363 83.5982 17.2459 83.4174 17.2446C82.9728 17.2446 82.6164 17.2017 82.3494 17.1235C82.083 17.0446 81.8676 16.9235 81.7194 16.7664C81.564 16.6094 81.4674 16.4164 81.408 16.1805C81.3503 15.9152 81.3182 15.6452 81.312 15.3741V11.0529H80.0442V9.8317H80.0292V9.83347Z" fill="#05060F"/>
<path d="M20.6138 7.04059H12.9332L10.5608 0L8.18 7.04118L0.5 7.03353L6.7202 11.3888L4.3406 18.4218L10.5608 14.0735L16.7738 18.4218L14.4014 11.3888L20.6138 7.04059Z" fill="#00B67A"/>
<path d="M14.935 12.982L14.401 11.3896L10.561 14.0744L14.935 12.982Z" fill="#126849"/>
</g>
<defs>
<clipPath id="clip0_3169_35062">
<rect width="84" height="20" fill="white" transform="translate(0.5)"/>
</clipPath>
</defs>
</svg>
