<svg width="90" height="90" viewBox="0 0 90 90" fill="none" xmlns="http://www.w3.org/2000/svg">
<rect x="1" y="1" width="88" height="88" rx="10" fill="#F8F8F8"/>
<rect x="0.625" y="0.625" width="88.75" height="88.75" rx="10.375" stroke="#05060F" stroke-opacity="0.05" stroke-width="0.75"/>
<path fill-rule="evenodd" clip-rule="evenodd" d="M21.4267 44.9999C21.4267 44.6464 21.7132 44.3599 22.0667 44.3599H68.04C68.3935 44.3599 68.68 44.6464 68.68 44.9999C68.68 45.3533 68.3935 45.6399 68.04 45.6399H22.0667C21.7132 45.6399 21.4267 45.3533 21.4267 44.9999Z" fill="#87878C"/>
<path fill-rule="evenodd" clip-rule="evenodd" d="M45 68.5732C44.6465 68.5732 44.36 68.2867 44.36 67.9332V21.9599C44.36 21.6065 44.6465 21.3199 45 21.3199C45.3535 21.3199 45.64 21.6065 45.64 21.9599V67.9332C45.64 68.2867 45.3535 68.5732 45 68.5732Z" fill="#87878C"/>
<path fill-rule="evenodd" clip-rule="evenodd" d="M44.5474 20.6542C44.7974 20.4043 45.2026 20.4043 45.4525 20.6542L69.3622 44.5638C69.6121 44.8138 69.6121 45.219 69.3622 45.4689L45.4525 69.3786C45.2026 69.6285 44.7974 69.6285 44.5474 69.3786L20.6378 45.4689C20.3879 45.219 20.3879 44.8138 20.6378 44.5638L44.5474 20.6542ZM45 22.0119L21.9955 45.0164L45 68.0209L68.0045 45.0164L45 22.0119Z" fill="#87878C"/>
<path fill-rule="evenodd" clip-rule="evenodd" d="M36.05 46.0678C37.6732 43.8086 40.8901 41.9385 44.9996 41.9385C49.1092 41.9385 52.326 43.8086 53.9493 46.0678C55.5181 48.2514 55.768 50.5833 55.773 51.9682C55.778 53.3607 54.6087 54.2697 53.4098 54.2697H36.5894C35.3906 54.2697 34.2213 53.3607 34.2263 51.9682C34.2313 50.5833 34.4812 48.2514 36.05 46.0678Z" fill="#F8DB46"/>
<path fill-rule="evenodd" clip-rule="evenodd" d="M35.6169 45.7568C37.3476 43.348 40.7312 41.4053 44.9997 41.4053C49.2682 41.4053 52.6518 43.348 54.3824 45.7568C56.042 48.0666 56.3011 50.5253 56.3063 51.9664C56.3126 53.7029 54.8529 54.8032 53.4099 54.8032H36.5895C35.1464 54.8032 33.6868 53.7029 33.693 51.9664C33.6982 50.5253 33.9574 48.0666 35.6169 45.7568ZM44.9997 42.4719C41.049 42.4719 37.999 44.2694 36.4832 46.3792C35.0051 48.4364 34.7645 50.6415 34.7597 51.9702C34.7559 53.0189 35.6349 53.7365 36.5895 53.7365H53.4099C54.3645 53.7365 55.2434 53.0189 55.2397 51.9702C55.2349 50.6415 54.9943 48.4364 53.5162 46.3792C52.0004 44.2694 48.9503 42.4719 44.9997 42.4719Z" fill="#05060F"/>
<path d="M50.808 37.6881C50.808 40.8959 48.2075 43.4963 44.9997 43.4963C41.7919 43.4963 39.1915 40.8959 39.1915 37.6881C39.1915 34.4803 41.7919 31.8799 44.9997 31.8799C48.2075 31.8799 50.808 34.4803 50.808 37.6881Z" fill="#F8DB46"/>
<path fill-rule="evenodd" clip-rule="evenodd" d="M44.9997 32.4133C42.0864 32.4133 39.7248 34.775 39.7248 37.6882C39.7248 40.6015 42.0864 42.9631 44.9997 42.9631C47.9129 42.9631 50.2746 40.6015 50.2746 37.6882C50.2746 34.775 47.9129 32.4133 44.9997 32.4133ZM38.6581 37.6882C38.6581 34.1859 41.4973 31.3467 44.9997 31.3467C48.502 31.3467 51.3412 34.1859 51.3412 37.6882C51.3412 41.1906 48.502 44.0298 44.9997 44.0298C41.4973 44.0298 38.6581 41.1906 38.6581 37.6882Z" fill="#05060F"/>
<path d="M50.12 21.213C50.12 23.9818 47.8754 26.2264 45.1067 26.2264C42.3379 26.2264 40.0933 23.9818 40.0933 21.213C40.0933 18.4443 42.3379 16.1997 45.1067 16.1997C47.8754 16.1997 50.12 18.4443 50.12 21.213Z" fill="white"/>
<path fill-rule="evenodd" clip-rule="evenodd" d="M45.1067 16.7332C42.6325 16.7332 40.6267 18.7389 40.6267 21.2132C40.6267 23.6874 42.6325 25.6932 45.1067 25.6932C47.5809 25.6932 49.5867 23.6874 49.5867 21.2132C49.5867 18.7389 47.5809 16.7332 45.1067 16.7332ZM39.56 21.2132C39.56 18.1498 42.0434 15.6665 45.1067 15.6665C48.17 15.6665 50.6534 18.1498 50.6534 21.2132C50.6534 24.2765 48.17 26.7598 45.1067 26.7598C42.0434 26.7598 39.56 24.2765 39.56 21.2132Z" fill="#05060F"/>
<path d="M50.0138 67.9333C50.0138 70.702 47.7693 72.9466 45.0005 72.9466C42.2317 72.9466 39.9872 70.702 39.9872 67.9333C39.9872 65.1645 42.2317 62.9199 45.0005 62.9199C47.7693 62.9199 50.0138 65.1645 50.0138 67.9333Z" fill="#F95959"/>
<path fill-rule="evenodd" clip-rule="evenodd" d="M45.0004 63.4534C42.5262 63.4534 40.5204 65.4591 40.5204 67.9334C40.5204 70.4076 42.5262 72.4134 45.0004 72.4134C47.4747 72.4134 49.4804 70.4076 49.4804 67.9334C49.4804 65.4591 47.4747 63.4534 45.0004 63.4534ZM39.4538 67.9334C39.4538 64.87 41.9371 62.3867 45.0004 62.3867C48.0638 62.3867 50.5471 64.87 50.5471 67.9334C50.5471 70.9967 48.0638 73.48 45.0004 73.48C41.9371 73.48 39.4538 70.9967 39.4538 67.9334Z" fill="#05060F"/>
<path d="M72.9465 44.9997C72.9465 47.7684 70.7019 50.013 67.9332 50.013C65.1644 50.013 62.9198 47.7684 62.9198 44.9997C62.9198 42.2309 65.1644 39.9863 67.9332 39.9863C70.7019 39.9863 72.9465 42.2309 72.9465 44.9997Z" fill="#4B9BFA"/>
<path fill-rule="evenodd" clip-rule="evenodd" d="M67.9331 40.5198C65.4588 40.5198 63.4531 42.5256 63.4531 44.9998C63.4531 47.474 65.4588 49.4798 67.9331 49.4798C70.4073 49.4798 72.4131 47.474 72.4131 44.9998C72.4131 42.5256 70.4073 40.5198 67.9331 40.5198ZM62.3864 44.9998C62.3864 41.9365 64.8697 39.4531 67.9331 39.4531C70.9964 39.4531 73.4797 41.9365 73.4797 44.9998C73.4797 48.0631 70.9964 50.5465 67.9331 50.5465C64.8697 50.5465 62.3864 48.0631 62.3864 44.9998Z" fill="#05060F"/>
<path d="M27.0801 44.9997C27.0801 47.7684 24.8356 50.013 22.0668 50.013C19.298 50.013 17.0534 47.7684 17.0534 44.9997C17.0534 42.2309 19.298 39.9863 22.0668 39.9863C24.8356 39.9863 27.0801 42.2309 27.0801 44.9997Z" fill="#9282FA"/>
<path fill-rule="evenodd" clip-rule="evenodd" d="M22.0668 40.5198C19.5926 40.5198 17.5868 42.5256 17.5868 44.9998C17.5868 47.474 19.5926 49.4798 22.0668 49.4798C24.541 49.4798 26.5468 47.474 26.5468 44.9998C26.5468 42.5256 24.541 40.5198 22.0668 40.5198ZM16.5201 44.9998C16.5201 41.9365 19.0035 39.4531 22.0668 39.4531C25.1302 39.4531 27.6135 41.9365 27.6135 44.9998C27.6135 48.0631 25.1302 50.5465 22.0668 50.5465C19.0035 50.5465 16.5201 48.0631 16.5201 44.9998Z" fill="#05060F"/>
</svg>
