<svg width="90" height="90" viewBox="0 0 90 90" fill="none" xmlns="http://www.w3.org/2000/svg">
<rect x="1" y="1" width="88" height="88" rx="10" fill="#F8F8F8"/>
<rect x="0.625" y="0.625" width="88.75" height="88.75" rx="10.375" stroke="#05060F" stroke-opacity="0.05" stroke-width="0.75"/>
<path d="M44.5733 45.4801C44.5733 40.5423 48.576 36.5393 53.5138 36.5393C58.4514 36.5393 62.4542 40.5423 62.4542 45.4801C62.4542 50.418 58.4514 54.4209 53.5138 54.4209C48.576 54.4209 44.5733 50.418 44.5733 45.4801Z" fill="#1ABCFE"/>
<path fill-rule="evenodd" clip-rule="evenodd" d="M53.5138 37.0616C48.8644 37.0616 45.0954 40.8308 45.0954 45.4803C45.0954 50.1298 48.8644 53.8989 53.5138 53.8989C58.163 53.8989 61.9321 50.1298 61.9321 45.4803C61.9321 40.8308 58.163 37.0616 53.5138 37.0616ZM44.0512 45.4803C44.0512 40.2541 48.2877 36.0173 53.5138 36.0173C58.7397 36.0173 62.9763 40.2541 62.9763 45.4803C62.9763 50.7065 58.7397 54.9432 53.5138 54.9432C48.2877 54.9432 44.0512 50.7065 44.0512 45.4803Z" fill="#05060F"/>
<path d="M26.6926 63.3617C26.6926 58.4239 30.6954 54.4209 35.6331 54.4209H44.5736V63.3617C44.5736 68.2996 40.5708 72.3025 35.6331 72.3025C30.6954 72.3025 26.6926 68.2996 26.6926 63.3617Z" fill="#0ACF83"/>
<path fill-rule="evenodd" clip-rule="evenodd" d="M35.633 54.9432C30.9837 54.9432 27.2147 58.7124 27.2147 63.3618C27.2147 68.0114 30.9837 71.7805 35.633 71.7805C40.2824 71.7805 44.0514 68.0114 44.0514 63.3618V54.9432H35.633ZM26.1705 63.3618C26.1705 58.1357 30.407 53.8989 35.633 53.8989H45.0956V63.3618C45.0956 68.5881 40.8591 72.8248 35.633 72.8248C30.407 72.8248 26.1705 68.5881 26.1705 63.3618Z" fill="#05060F"/>
<path d="M44.5733 18.6577V36.5393H53.5138C58.4515 36.5393 62.4542 32.5364 62.4542 27.5985C62.4542 22.6606 58.4515 18.6577 53.5138 18.6577H44.5733Z" fill="#FF7262"/>
<path fill-rule="evenodd" clip-rule="evenodd" d="M44.0512 18.1357H53.5138C58.7399 18.1357 62.9763 22.3724 62.9763 27.5987C62.9763 32.8249 58.7399 37.0615 53.5138 37.0615H44.0512V18.1357ZM45.0954 19.18V36.0173H53.5138C58.1632 36.0173 61.9321 32.2482 61.9321 27.5987C61.9321 22.9492 58.1632 19.18 53.5138 19.18H45.0954Z" fill="#05060F"/>
<path d="M26.6926 27.5988C26.6926 32.5366 30.6954 36.5395 35.6331 36.5395H44.5736V18.658H35.6331C30.6954 18.658 26.6926 22.6609 26.6926 27.5988Z" fill="#F24E1E"/>
<path fill-rule="evenodd" clip-rule="evenodd" d="M26.1705 27.5987C26.1705 22.3724 30.407 18.1357 35.633 18.1357H45.0956V37.0615H35.633C30.407 37.0615 26.1705 32.8249 26.1705 27.5987ZM35.633 19.18C30.9837 19.18 27.2147 22.9492 27.2147 27.5987C27.2147 32.2482 30.9837 36.0173 35.633 36.0173H44.0514V19.18H35.633Z" fill="#05060F"/>
<path d="M26.6926 45.4801C26.6926 50.418 30.6954 54.4209 35.6331 54.4209H44.5736V36.5393H35.6331C30.6954 36.5393 26.6926 40.5423 26.6926 45.4801Z" fill="#A259FF"/>
<path fill-rule="evenodd" clip-rule="evenodd" d="M26.1705 45.4803C26.1705 40.2541 30.407 36.0173 35.633 36.0173H45.0956V54.9432H35.633C30.407 54.9432 26.1705 50.7065 26.1705 45.4803ZM35.633 37.0616C30.9837 37.0616 27.2147 40.8308 27.2147 45.4803C27.2147 50.1298 30.9837 53.8989 35.633 53.8989H44.0514V37.0616H35.633Z" fill="#05060F"/>
<path d="M41.6002 59.0758L66.2988 44.8766C66.7946 44.5916 67.394 45.0261 67.279 45.5872L61.539 73.5884C61.4196 74.1707 60.6559 74.3154 60.3326 73.817L54.2398 64.4241C54.0313 64.1026 53.7154 63.8659 53.3487 63.7564L41.7409 60.2898C41.182 60.1229 41.0943 59.3666 41.6002 59.0758Z" fill="white"/>
<path fill-rule="evenodd" clip-rule="evenodd" d="M67.8015 45.6944C68.0082 44.6861 66.9296 43.8988 66.033 44.4143L41.3344 58.6135C40.4231 59.1374 40.5799 60.4999 41.5883 60.801L53.196 64.2675C53.4412 64.3407 53.6526 64.499 53.7924 64.7144L59.8852 74.1074C60.4688 75.0071 61.8465 74.7441 62.0614 73.6956L67.8015 45.6944ZM66.5646 45.3391C66.6595 45.2845 66.7798 45.3664 66.7565 45.4802L61.0165 73.4814C60.9927 73.5975 60.843 73.624 60.7801 73.5269L54.6872 64.1339C54.4099 63.7063 53.9895 63.3913 53.5013 63.2454L41.8935 59.7789C41.7841 59.7463 41.7655 59.596 41.866 59.5382L66.5646 45.3391Z" fill="#05060F"/>
</svg>
