<svg width="90" height="90" viewBox="0 0 90 90" fill="none" xmlns="http://www.w3.org/2000/svg">
<rect x="1" y="1" width="88" height="88" rx="10" fill="#F8F8F8"/>
<rect x="0.625" y="0.625" width="88.75" height="88.75" rx="10.375" stroke="#05060F" stroke-opacity="0.05" stroke-width="0.75"/>
<path d="M34.8992 41.762L23.0665 49.3257C19.7206 51.4644 19.802 56.3788 23.2168 58.4057L35.4285 65.654C41.3447 69.1656 48.7027 69.1811 54.6335 65.6944L67.0129 58.4166C70.4534 56.394 70.5349 51.4477 67.1629 49.3128L55.167 41.718C48.9751 37.7979 41.074 37.815 34.8992 41.762Z" fill="#513DEB"/>
<path fill-rule="evenodd" clip-rule="evenodd" d="M22.492 48.4269L34.3247 40.8633C40.8484 36.6933 49.1958 36.6752 55.7375 40.8168L67.7334 48.4116C71.7799 50.9734 71.6821 56.909 67.5535 59.3362L55.1741 66.6139C48.9081 70.2976 41.1344 70.2813 34.884 66.5713L22.6723 59.3229C18.5745 56.8907 18.4769 50.9934 22.492 48.4269ZM23.0665 49.3257L34.8992 41.7621C41.074 37.815 48.9751 37.7979 55.1669 41.718L67.1629 49.3128C70.5349 51.4477 70.4534 56.394 67.0129 58.4166L54.6335 65.6944C48.7026 69.1811 41.3446 69.1656 35.4285 65.654L23.2167 58.4057C19.8019 56.3788 19.7206 51.4644 23.0665 49.3257Z" fill="#05060F"/>
<path d="M34.9085 32.7104L26.4182 38.1449C23.3433 40.113 23.4181 44.6301 26.5564 46.4954L35.4379 51.7741C41.3589 55.2933 48.7264 55.3088 54.6621 51.8145L63.6807 46.5055C66.8427 44.6441 66.9176 40.0976 63.8187 38.133L55.1957 32.6663C48.9992 28.7379 41.0879 28.7551 34.9085 32.7104Z" fill="#AFACFF"/>
<path fill-rule="evenodd" clip-rule="evenodd" d="M25.8432 37.2465L34.3335 31.812C40.862 27.6333 49.2202 27.6151 55.7668 31.7654L64.3899 37.2321C68.1624 39.6238 68.0712 45.1587 64.2219 47.4247L55.2033 52.7338C48.9322 56.4254 41.1484 56.4091 34.893 52.6911L26.0115 47.4123C22.1909 45.1415 22.0999 39.6425 25.8432 37.2465ZM26.4182 38.1449L34.9086 32.7104C41.0879 28.7551 48.9992 28.7379 55.1957 32.6663L63.8187 38.133C66.9176 40.0976 66.8427 44.6441 63.6807 46.5055L54.6621 51.8146C48.7264 55.3088 41.3589 55.2933 35.4379 51.7742L26.5564 46.4954C23.4181 44.6301 23.3433 40.113 26.4182 38.1449Z" fill="#05060F"/>
<path d="M34.9139 23.2857L29.0248 27.0604C26.2205 28.8578 26.2887 32.9782 29.151 34.6818L35.4434 38.4269C41.3693 41.9539 48.7467 41.9694 54.6873 38.4674L61.0934 34.691C63.9772 32.991 64.0456 28.8437 61.2194 27.0495L55.221 23.2415C49.0197 19.3046 41.098 19.3219 34.9139 23.2857Z" fill="#EDE8FF"/>
<path fill-rule="evenodd" clip-rule="evenodd" d="M28.4492 26.1623L34.3383 22.3876C40.8718 18.1999 49.2411 18.1817 55.7928 22.341L61.7911 26.149C65.2903 28.3704 65.2056 33.5051 61.6351 35.6099L55.229 39.3863C48.9527 43.0862 41.1585 43.0698 34.8979 39.3435L28.6055 35.5984C25.0617 33.4892 24.9772 28.3878 28.4492 26.1623ZM29.0248 27.0604L34.9139 23.2857C41.098 19.3219 49.0198 19.3046 55.2211 23.2415L61.2194 27.0495C64.0457 28.8438 63.9773 32.991 61.0934 34.6911L54.6873 38.4674C48.7467 41.9694 41.3693 41.9539 35.4434 38.4269L29.151 34.6818C26.2887 32.9782 26.2205 28.8578 29.0248 27.0604Z" fill="#05060F"/>
</svg>
