<svg width="90" height="90" viewBox="0 0 90 90" fill="none" xmlns="http://www.w3.org/2000/svg">
<rect x="1" y="1" width="88" height="88" rx="10" fill="#F8F8F8"/>
<rect x="0.625" y="0.625" width="88.75" height="88.75" rx="10.375" stroke="#05060F" stroke-opacity="0.05" stroke-width="0.75"/>
<g clip-path="url(#clip0_1737_50954)">
<path d="M61.5338 27.2744C62.4763 27.2744 63.2404 28.0385 63.2404 28.9811V48.6238C63.2404 48.8716 63.1865 49.1164 63.0823 49.3412L60.3466 55.2468C60.0631 55.8588 60.1666 56.5804 60.6108 57.088L62.8181 59.6107C63.0904 59.9218 63.2404 60.3211 63.2404 60.7345V60.922C63.2404 61.8646 62.4763 62.6287 61.5338 62.6287H58.5426C57.6 62.6287 56.8359 61.8646 56.8359 60.922V28.9811C56.8359 28.0385 57.6 27.2744 58.5426 27.2744H61.5338Z" fill="#4B9BFA"/>
<path d="M55.7692 60.922V28.9811C55.7692 27.4494 57.0109 26.2078 58.5425 26.2078V27.2744L58.4985 27.275C57.5763 27.2983 56.8359 28.0533 56.8359 28.9811V60.922L56.8364 60.9661C56.8594 61.8736 57.5909 62.6052 58.4985 62.6282L58.5425 62.6287H61.5337L61.5778 62.6282C62.4853 62.6052 63.2168 61.8737 63.2398 60.9661L63.2404 60.922V60.7345C63.2404 60.3341 63.0996 59.9468 62.8433 59.6401L62.8181 59.6107L60.6108 57.0881C60.1805 56.5963 60.0699 55.9037 60.3212 55.3045L60.3466 55.2468L63.0823 49.3412C63.18 49.1304 63.2334 48.9021 63.2397 48.6703L63.2404 48.6238V28.9811C63.2404 28.0533 62.5 27.2983 61.5778 27.275L61.5337 27.2744V26.2078C63.0654 26.2078 64.307 27.4494 64.307 28.9811V48.6238C64.307 49.0012 64.23 49.3745 64.081 49.7207L64.0501 49.7895L61.3144 55.6951C61.2081 55.9247 61.2469 56.1953 61.4135 56.3857L63.6209 58.9083L63.6617 58.9561C64.0782 59.4544 64.307 60.0837 64.307 60.7345V60.922C64.307 62.4537 63.0654 63.6954 61.5337 63.6954H58.5425C57.0109 63.6954 55.7692 62.4537 55.7692 60.922ZM61.5337 26.2078V27.2744H58.5425V26.2078H61.5337Z" fill="#05060F"/>
<path d="M26.589 61.4647C26.3558 62.1601 25.7044 62.6287 24.9709 62.6287H21.7727C20.5958 62.6287 19.7721 61.4654 20.1629 60.3553L31.4078 28.4143C31.6482 27.7313 32.2935 27.2744 33.0176 27.2744H38.5075C39.2313 27.2744 39.8764 27.731 40.1171 28.4136L51.3775 60.3546C51.7689 61.4649 50.9452 62.6287 49.7679 62.6287H46.5701C45.837 62.6287 45.1858 62.1605 44.9523 61.4656L35.9443 34.6557C35.9181 34.5775 35.8448 34.5248 35.7623 34.5248C35.6798 34.5248 35.6065 34.5775 35.5802 34.6558L26.589 61.4647ZM26.4231 50.4733C26.4231 49.5307 27.1872 48.7666 28.1297 48.7666H43.3603C44.3028 48.7666 45.0669 49.5307 45.0669 50.4733V52.2043C45.0669 53.1468 44.3028 53.9109 43.3603 53.9109H28.1297C27.1872 53.9109 26.4231 53.1468 26.4231 52.2043V50.4733Z" fill="#4B9BFA"/>
<path d="M38.5075 26.2078C39.6837 26.2078 40.7321 26.9497 41.1231 28.059L52.3835 59.9999C53.0196 61.8042 51.681 63.6954 49.7679 63.6954H46.5702C45.3789 63.6954 44.3207 62.9346 43.9412 61.8054L41.6472 54.9776H29.8898L27.6004 61.8039C27.2214 62.9339 26.1628 63.6954 24.9709 63.6954H21.7728C19.8603 63.6954 18.5217 61.8051 19.1568 60.0011L30.4017 28.0602L30.4204 28.0084C30.8251 26.9272 31.8593 26.2078 33.0176 26.2078V27.2744L32.95 27.2758C32.2536 27.3032 31.6408 27.7527 31.4078 28.4143L20.1629 60.3552L20.1455 60.4073C19.8034 61.4841 20.5886 62.593 21.7179 62.6278L21.7728 62.6287H24.9709L25.0395 62.6273C25.722 62.6001 26.3231 62.1676 26.5659 61.5292L26.5891 61.4647L29.1225 53.911H42.4141L44.9524 61.4656C45.1786 62.1388 45.7968 62.5992 46.5017 62.6273L46.5702 62.6287H49.7679L49.8229 62.6278C50.9524 62.5929 51.7376 61.4836 51.395 60.4067L51.3775 60.3546L40.1171 28.4137C39.8839 27.7524 39.2712 27.3032 38.5751 27.2758L38.5075 27.2744V26.2078ZM35.7623 34.5248C35.8448 34.5248 35.9181 34.5775 35.9444 34.6557L40.6856 48.7666H30.8478L35.5803 34.6558C35.6066 34.5776 35.6798 34.5249 35.7623 34.5248ZM32.3306 47.6999H39.2019L35.763 37.4653L32.3306 47.6999ZM38.5075 26.2078V27.2744H33.0176V26.2078H38.5075Z" fill="#05060F"/>
<path d="M30.0452 20.3958C30.0473 19.8182 29.5808 19.3484 29.0033 19.3462C28.4258 19.344 27.9558 19.8107 27.9536 20.3882C27.9467 22.3111 27.4443 23.5215 26.6712 24.2683C25.8894 25.0233 24.6557 25.4746 22.8303 25.5005C22.2557 25.5086 21.7953 25.9789 21.7994 26.5536C21.8035 27.1283 22.2705 27.592 22.8452 27.592C24.8728 27.592 26.0772 28.1276 26.7966 28.9055C27.532 29.7008 27.9377 30.9386 27.9536 32.7098C27.9587 33.2753 28.4124 33.7343 28.9779 33.746C29.5433 33.7576 30.0155 33.3176 30.0439 32.7528C30.1378 30.8811 30.6354 29.6249 31.4081 28.8371C32.1681 28.0623 33.3475 27.5852 35.1496 27.592C35.7236 27.5942 36.1921 27.1333 36.1993 26.5593C36.2065 25.9854 35.7498 25.5129 35.1759 25.5006C33.1986 25.4583 31.9654 24.9355 31.218 24.1592C30.4683 23.3805 30.0383 22.1713 30.0452 20.3958Z" fill="#F5CB36"/>
<path d="M29.0617 18.2805C30.203 18.3137 31.1159 19.2513 31.1118 20.3997V20.4C31.1055 22.0138 31.4965 22.9107 31.9863 23.4193L32.033 23.4665C32.5298 23.9524 33.4465 24.3968 35.1987 24.4342L35.2528 24.4361C36.3684 24.4881 37.2517 25.4019 37.2658 26.5186V26.5728C37.2514 27.714 36.3343 28.6339 35.1997 28.6582L35.1454 28.6587C33.5842 28.6528 32.7234 29.0492 32.2174 29.5365L32.1695 29.584C31.6612 30.1023 31.2237 31.0239 31.1183 32.6469L31.1091 32.8062C31.0527 33.9293 30.1275 34.8081 29.0092 34.8129L28.9559 34.8125C27.8316 34.7893 26.9259 33.8905 26.888 32.7728L26.8869 32.7193C26.8727 31.1354 26.5201 30.2116 26.0584 29.68L26.0134 29.6298C25.5618 29.1415 24.6888 28.6587 22.8451 28.6587C21.7024 28.6587 20.7705 27.7511 20.7338 26.6155L20.7327 26.5612C20.7245 25.4004 21.6544 24.4504 22.8151 24.4339L22.9697 24.4306C24.5447 24.3844 25.4304 23.9837 25.93 23.5011L25.9766 23.4548C26.4564 22.9631 26.8807 22.0745 26.8868 20.3845V20.3841L26.8877 20.3297C26.9211 19.1888 27.8585 18.2753 29.0072 18.2796L29.0617 18.2805ZM29.0033 19.3462C28.4257 19.3441 27.9557 19.8108 27.9535 20.3883L27.9514 20.5664C27.9149 22.3863 27.4201 23.5449 26.6711 24.2683L26.5965 24.3382C25.8117 25.0512 24.5985 25.4754 22.8302 25.5005L22.7767 25.5026C22.2273 25.5381 21.7954 25.9969 21.7993 26.5536C21.8034 27.1283 22.2704 27.5921 22.8451 27.5921C24.8727 27.5921 26.0771 28.1277 26.7965 28.9056C27.5319 29.7009 27.9377 30.9387 27.9536 32.7098C27.9585 33.2576 28.3844 33.7056 28.9251 33.7436L28.9777 33.746C29.5255 33.7573 29.9858 33.3447 30.0398 32.8054L30.0438 32.7528C30.1347 30.9396 30.6046 29.7041 31.3364 28.9124L31.408 28.8371C32.1443 28.0865 33.2741 27.6153 34.9824 27.5928L35.1495 27.5921C35.7055 27.5942 36.1626 27.1617 36.1972 26.6129L36.1992 26.5593C36.2062 26.0033 35.7778 25.5425 35.2293 25.5031L35.1759 25.5007C33.2603 25.4597 32.0431 24.9677 31.2894 24.2312L31.2178 24.1592C30.4916 23.4049 30.0654 22.2465 30.0458 20.5606L30.0451 20.3958C30.0472 19.8183 29.5808 19.3484 29.0033 19.3462Z" fill="#05060F"/>
<path d="M60.8731 71.8751C60.7104 72.157 60.35 72.2536 60.0681 72.0908L52.1345 67.5104C51.8526 67.3476 51.756 66.9872 51.9188 66.7054L53.5642 63.8555C54.0863 62.9511 55.2427 62.6412 56.1471 63.1634L61.8264 66.4423C62.7308 66.9645 63.0406 68.1209 62.5185 69.0252L60.8731 71.8751Z" fill="#F5CB36"/>
<path d="M52.3806 66.972C52.3652 66.9988 52.3744 67.033 52.4012 67.0485L60.3348 71.629C60.3615 71.6444 60.3957 71.6352 60.4112 71.6085L62.0566 68.7585C62.4315 68.1093 62.209 67.279 61.5597 66.9042L55.8804 63.6252C55.2311 63.2503 54.4009 63.4728 54.026 64.1221L52.3806 66.972ZM53.1023 63.5887C53.7717 62.4293 55.2543 62.032 56.4137 62.7014L62.0931 65.9804C63.2525 66.6498 63.6498 68.1324 62.9804 69.2919L61.335 72.1418C61.0249 72.6787 60.3384 72.8627 59.8015 72.5527L51.8678 67.9722C51.3309 67.6622 51.1469 66.9756 51.4569 66.4387L53.1023 63.5887Z" fill="#05060F"/>
<path fill-rule="evenodd" clip-rule="evenodd" d="M62.954 66.5176L70.1466 61.2596C70.58 60.9428 70.8248 60.4291 70.7979 59.8929L70.0758 45.4932L57.2583 52.054C56.7694 52.3043 56.4437 52.7886 56.3965 53.3359L55.622 62.307C55.5887 62.6923 55.7815 63.0621 56.1164 63.2555L61.8679 66.5761C62.2096 66.7734 62.6355 66.7504 62.954 66.5176ZM64.963 54.3416C63.9279 53.744 62.6044 54.0986 62.0068 55.1337C61.4092 56.1687 61.7638 57.4923 62.7989 58.0899C63.834 58.6875 65.1575 58.3328 65.7551 57.2978C66.3527 56.2627 65.9981 54.9392 64.963 54.3416Z" fill="white"/>
<path d="M69.8633 45.0039C70.0177 44.9368 70.1956 44.9463 70.3425 45.0312C70.4992 45.1217 70.5994 45.2856 70.6085 45.4664L71.3305 59.8661L71.3328 59.9331C71.3453 60.6019 71.0422 61.238 70.5148 61.6496L70.4613 61.69L63.2688 66.9481C62.795 67.2944 62.1665 67.3382 61.6507 67.0652L61.6013 67.0378L55.8497 63.7172C55.3355 63.4203 55.0396 62.8526 55.0906 62.261L55.8651 53.2899L55.8721 53.2217C55.9555 52.5195 56.3832 51.9027 57.0153 51.5791L69.8327 45.0183L69.8633 45.0039ZM57.5013 52.5287C57.1861 52.69 56.9729 52.9975 56.9313 53.3476L56.9278 53.3816L56.1534 62.3527C56.1379 62.5318 56.2274 62.7036 56.383 62.7935L62.1346 66.1141L62.1648 66.1301C62.3179 66.2041 62.5005 66.1883 62.6393 66.0869L69.8318 60.829L69.8585 60.8088C70.1214 60.6036 70.2726 60.2864 70.2664 59.9528L70.2652 59.9195L69.5843 46.3437L57.5013 52.5287ZM61.5805 54.807C62.3413 53.5632 63.9597 53.1464 65.2297 53.8796L65.2895 53.9151C66.5136 54.6638 66.9368 56.2431 66.2511 57.5036L66.217 57.5643C65.4838 58.8343 63.8737 59.2825 62.5929 58.5857L62.5322 58.5517C61.2421 57.8068 60.8 56.1571 61.5449 54.8669L61.5805 54.807ZM64.6964 54.8034C63.9286 54.3601 62.9502 54.6121 62.4902 55.3641L62.4687 55.4002C62.0184 56.1802 62.2856 57.1775 63.0655 57.6279L63.1023 57.6485C63.8766 58.0697 64.85 57.7988 65.2932 57.031L65.3139 56.9943C65.7285 56.2323 65.4726 55.2775 64.7325 54.8248L64.6964 54.8034Z" fill="#05060F"/>
<path d="M69.4313 45.5546C69.582 45.3161 69.895 45.2351 70.1436 45.375C70.3923 45.515 70.4855 45.8247 70.3597 46.0772L70.3469 46.1015L65.6029 54.5289L65.5888 54.5525C65.4381 54.7911 65.1251 54.872 64.8764 54.732C64.6198 54.5875 64.5288 54.2623 64.6733 54.0057L69.4173 45.5782L69.4313 45.5546Z" fill="#05060F"/>
</g>
<defs>
<clipPath id="clip0_1737_50954">
<rect width="64" height="64" fill="white" transform="translate(13 13)"/>
</clipPath>
</defs>
</svg>
