<svg width="90" height="90" viewBox="0 0 90 90" fill="none" xmlns="http://www.w3.org/2000/svg">
<rect x="1" y="1" width="88" height="88" rx="10" fill="#F8F8F8"/>
<rect x="0.625" y="0.625" width="88.75" height="88.75" rx="10.375" stroke="#05060F" stroke-opacity="0.05" stroke-width="0.75"/>
<path fill-rule="evenodd" clip-rule="evenodd" d="M44.8966 72.5394C60.0358 72.5394 72.3086 60.2666 72.3086 45.1274C72.3086 29.9881 60.0358 17.7153 44.8966 17.7153C29.7573 17.7153 17.4845 29.9881 17.4845 45.1274C17.4845 60.2666 29.7573 72.5394 44.8966 72.5394ZM44.7899 65.8069C55.5903 65.8069 66.1752 57.595 66.1752 45.1274C66.1752 32.6598 56.2472 23.946 44.8966 23.946C34.0955 23.946 23.5129 32.6598 23.5129 45.1274C23.5129 57.595 33.9895 65.8069 44.7899 65.8069Z" fill="#F8DB46"/>
<path d="M66.4397 44.9998C66.4397 56.8997 56.793 66.5464 44.8931 66.5464C32.9932 66.5464 23.3464 56.8997 23.3464 44.9998C23.3464 33.0999 32.9932 23.4531 44.8931 23.4531C56.793 23.4531 66.4397 33.0999 66.4397 44.9998Z" fill="white"/>
<path fill-rule="evenodd" clip-rule="evenodd" d="M44.8931 65.4788C56.2033 65.4788 65.3721 56.31 65.3721 44.9998C65.3721 33.6895 56.2033 24.5207 44.8931 24.5207C33.5828 24.5207 24.414 33.6895 24.414 44.9998C24.414 56.31 33.5828 65.4788 44.8931 65.4788ZM44.8931 66.5464C56.793 66.5464 66.4397 56.8997 66.4397 44.9998C66.4397 33.0999 56.793 23.4531 44.8931 23.4531C32.9932 23.4531 23.3464 33.0999 23.3464 44.9998C23.3464 56.8997 32.9932 66.5464 44.8931 66.5464Z" fill="#05060F"/>
<path fill-rule="evenodd" clip-rule="evenodd" d="M44.9997 72.0922C59.9624 72.0922 72.0921 59.9625 72.0921 44.9998C72.0921 30.0371 59.9624 17.9075 44.9997 17.9075C30.037 17.9075 17.9073 30.0371 17.9073 44.9998C17.9073 59.9625 30.037 72.0922 44.9997 72.0922ZM44.9997 73.1598C60.5521 73.1598 73.1597 60.5522 73.1597 44.9998C73.1597 29.4475 60.5521 16.8398 44.9997 16.8398C29.4474 16.8398 16.8397 29.4475 16.8397 44.9998C16.8397 60.5522 29.4474 73.1598 44.9997 73.1598Z" fill="#05060F"/>
<path fill-rule="evenodd" clip-rule="evenodd" d="M44.8423 23.9614C45.1371 23.9614 45.3761 24.2004 45.3761 24.4952V28.7619C45.3761 29.0567 45.1371 29.2957 44.8423 29.2957C44.5475 29.2957 44.3085 29.0567 44.3085 28.7619V24.4952C44.3085 24.2004 44.5475 23.9614 44.8423 23.9614Z" fill="#05060F"/>
<path fill-rule="evenodd" clip-rule="evenodd" d="M44.8423 60.6323C45.1371 60.6323 45.3761 60.8713 45.3761 61.1661V65.4328C45.3761 65.7276 45.1371 65.9666 44.8423 65.9666C44.5475 65.9666 44.3085 65.7276 44.3085 65.4328V61.1661C44.3085 60.8713 44.5475 60.6323 44.8423 60.6323Z" fill="#05060F"/>
<path fill-rule="evenodd" clip-rule="evenodd" d="M65.8813 44.9498C65.8813 45.2446 65.6423 45.4836 65.3475 45.4836H61.0808C60.786 45.4836 60.547 45.2446 60.547 44.9498C60.547 44.655 60.786 44.416 61.0808 44.416H65.3475C65.6423 44.416 65.8813 44.655 65.8813 44.9498Z" fill="#05060F"/>
<path fill-rule="evenodd" clip-rule="evenodd" d="M29.1518 44.9498C29.1518 45.2446 28.9128 45.4836 28.618 45.4836L24.3513 45.4836C24.0565 45.4836 23.8175 45.2446 23.8175 44.9498C23.8175 44.655 24.0565 44.416 24.3513 44.416L28.618 44.416C28.9128 44.416 29.1518 44.655 29.1518 44.9498Z" fill="#05060F"/>
<path d="M55.064 34.0304C55.5999 33.7924 56.1475 34.3399 55.9094 34.8759L49.4851 49.3402C49.4243 49.4772 49.245 49.5105 49.139 49.4045L40.5353 40.8009C40.4294 40.6949 40.4627 40.5156 40.5997 40.4548L55.064 34.0304Z" fill="#4B9BFA"/>
<path fill-rule="evenodd" clip-rule="evenodd" d="M55.0979 33.2678C56.08 32.8316 57.0834 33.835 56.6472 34.8172L50.2229 49.2815C50.0101 49.7606 49.3829 49.8771 49.0122 49.5065L40.4086 40.9028C40.0379 40.5321 40.1544 39.9049 40.6335 39.6922L55.0979 33.2678ZM55.5948 34.2332C55.5808 34.2302 55.5609 34.2293 55.5308 34.2427L41.4922 40.4779L49.4371 48.4229L55.6724 34.3842C55.6857 34.3541 55.6849 34.3342 55.6819 34.3203C55.6782 34.3031 55.6682 34.2829 55.6502 34.2648C55.6322 34.2468 55.612 34.2368 55.5948 34.2332Z" fill="#05060F"/>
<path d="M34.9293 55.9574C34.3933 56.1954 33.8458 55.6479 34.0839 55.1119L40.5082 40.6476C40.569 40.5106 40.7483 40.4773 40.8543 40.5833L49.4579 49.1869C49.5639 49.2929 49.5306 49.4722 49.3936 49.533L34.9293 55.9574Z" fill="#F95959"/>
<path fill-rule="evenodd" clip-rule="evenodd" d="M35.1457 56.4451C34.1636 56.8813 33.1602 55.8779 33.5964 54.8957L40.0207 40.4314C40.2335 39.9523 40.8607 39.8358 41.2314 40.2064L49.835 48.8101C50.2057 49.1807 50.0892 49.808 49.6101 50.0207L35.1457 56.4451ZM34.6488 55.4797C34.6628 55.4827 34.6827 55.4836 34.7128 55.4702L48.7514 49.235L40.8065 41.29L34.5712 55.3287C34.5579 55.3588 34.5588 55.3787 34.5617 55.3926C34.5654 55.4098 34.5754 55.43 34.5934 55.448C34.6114 55.4661 34.6317 55.4761 34.6488 55.4797Z" fill="#05060F"/>
</svg>
